<svg width="145" height="38" viewBox="0 0 145 38" fill="none" xmlns="http://www.w3.org/2000/svg">
<path d="M14.8157 15.95C14.8157 16.8833 14.5907 17.7583 14.1407 18.575C13.7074 19.3917 13.0157 20.05 12.0657 20.55C11.1324 21.05 9.94906 21.3 8.51572 21.3H5.59072V28H2.09072V10.55H8.51572C9.86572 10.55 11.0157 10.7833 11.9657 11.25C12.9157 11.7167 13.6241 12.3583 14.0907 13.175C14.5741 13.9917 14.8157 14.9167 14.8157 15.95ZM8.36572 18.475C9.33239 18.475 10.0491 18.2583 10.5157 17.825C10.9824 17.375 11.2157 16.75 11.2157 15.95C11.2157 14.25 10.2657 13.4 8.36572 13.4H5.59072V18.475H8.36572ZM20.8007 16.3C21.2507 15.5667 21.834 14.9917 22.5507 14.575C23.284 14.1583 24.1174 13.95 25.0507 13.95V17.625H24.1257C23.0257 17.625 22.1924 17.8833 21.6257 18.4C21.0757 18.9167 20.8007 19.8167 20.8007 21.1V28H17.3007V14.15H20.8007V16.3ZM33.5581 28.225C32.2248 28.225 31.0248 27.9333 29.9581 27.35C28.8914 26.75 28.0498 25.9083 27.4331 24.825C26.8331 23.7417 26.5331 22.4917 26.5331 21.075C26.5331 19.6583 26.8414 18.4083 27.4581 17.325C28.0914 16.2417 28.9498 15.4083 30.0331 14.825C31.1164 14.225 32.3248 13.925 33.6581 13.925C34.9914 13.925 36.1998 14.225 37.2831 14.825C38.3664 15.4083 39.2164 16.2417 39.8331 17.325C40.4664 18.4083 40.7831 19.6583 40.7831 21.075C40.7831 22.4917 40.4581 23.7417 39.8081 24.825C39.1748 25.9083 38.3081 26.75 37.2081 27.35C36.1248 27.9333 34.9081 28.225 33.5581 28.225ZM33.5581 25.175C34.1914 25.175 34.7831 25.025 35.3331 24.725C35.8998 24.4083 36.3498 23.9417 36.6831 23.325C37.0164 22.7083 37.1831 21.9583 37.1831 21.075C37.1831 19.7583 36.8331 18.75 36.1331 18.05C35.4498 17.3333 34.6081 16.975 33.6081 16.975C32.6081 16.975 31.7664 17.3333 31.0831 18.05C30.4164 18.75 30.0831 19.7583 30.0831 21.075C30.0831 22.3917 30.4081 23.4083 31.0581 24.125C31.7248 24.825 32.5581 25.175 33.5581 25.175ZM48.7755 13.925C49.8088 13.925 50.7172 14.1333 51.5005 14.55C52.2838 14.95 52.9005 15.475 53.3505 16.125V14.15H56.8755V28.1C56.8755 29.3833 56.6172 30.525 56.1005 31.525C55.5838 32.5417 54.8088 33.3417 53.7755 33.925C52.7422 34.525 51.4922 34.825 50.0255 34.825C48.0588 34.825 46.4422 34.3667 45.1755 33.45C43.9255 32.5333 43.2172 31.2833 43.0505 29.7H46.5255C46.7088 30.3333 47.1005 30.8333 47.7005 31.2C48.3172 31.5833 49.0588 31.775 49.9255 31.775C50.9422 31.775 51.7672 31.4667 52.4005 30.85C53.0338 30.25 53.3505 29.3333 53.3505 28.1V25.95C52.9005 26.6 52.2755 27.1417 51.4755 27.575C50.6922 28.0083 49.7922 28.225 48.7755 28.225C47.6088 28.225 46.5422 27.925 45.5755 27.325C44.6088 26.725 43.8422 25.8833 43.2755 24.8C42.7255 23.7 42.4505 22.4417 42.4505 21.025C42.4505 19.625 42.7255 18.3833 43.2755 17.3C43.8422 16.2167 44.6005 15.3833 45.5505 14.8C46.5172 14.2167 47.5922 13.925 48.7755 13.925ZM53.3505 21.075C53.3505 20.225 53.1838 19.5 52.8505 18.9C52.5172 18.2833 52.0672 17.8167 51.5005 17.5C50.9338 17.1667 50.3255 17 49.6755 17C49.0255 17 48.4255 17.1583 47.8755 17.475C47.3255 17.7917 46.8755 18.2583 46.5255 18.875C46.1922 19.475 46.0255 20.1917 46.0255 21.025C46.0255 21.8583 46.1922 22.5917 46.5255 23.225C46.8755 23.8417 47.3255 24.3167 47.8755 24.65C48.4422 24.9833 49.0422 25.15 49.6755 25.15C50.3255 25.15 50.9338 24.9917 51.5005 24.675C52.0672 24.3417 52.5172 23.875 52.8505 23.275C53.1838 22.6583 53.3505 21.925 53.3505 21.075ZM59.3938 21.025C59.3938 19.625 59.6688 18.3833 60.2188 17.3C60.7855 16.2167 61.5438 15.3833 62.4938 14.8C63.4605 14.2167 64.5355 13.925 65.7188 13.925C66.7522 13.925 67.6522 14.1333 68.4188 14.55C69.2022 14.9667 69.8272 15.4917 70.2938 16.125V14.15H73.8188V28H70.2938V25.975C69.8438 26.625 69.2188 27.1667 68.4188 27.6C67.6355 28.0167 66.7272 28.225 65.6938 28.225C64.5272 28.225 63.4605 27.925 62.4938 27.325C61.5438 26.725 60.7855 25.8833 60.2188 24.8C59.6688 23.7 59.3938 22.4417 59.3938 21.025ZM70.2938 21.075C70.2938 20.225 70.1272 19.5 69.7938 18.9C69.4605 18.2833 69.0105 17.8167 68.4438 17.5C67.8772 17.1667 67.2688 17 66.6188 17C65.9688 17 65.3688 17.1583 64.8188 17.475C64.2688 17.7917 63.8188 18.2583 63.4688 18.875C63.1355 19.475 62.9688 20.1917 62.9688 21.025C62.9688 21.8583 63.1355 22.5917 63.4688 23.225C63.8188 23.8417 64.2688 24.3167 64.8188 24.65C65.3855 24.9833 65.9855 25.15 66.6188 25.15C67.2688 25.15 67.8772 24.9917 68.4438 24.675C69.0105 24.3417 69.4605 23.875 69.7938 23.275C70.1272 22.6583 70.2938 21.925 70.2938 21.075ZM81.3122 17.025V23.725C81.3122 24.1917 81.4205 24.5333 81.6372 24.75C81.8705 24.95 82.2539 25.05 82.7872 25.05H84.4122V28H82.2122C79.2622 28 77.7872 26.5667 77.7872 23.7V17.025H76.1372V14.15H77.7872V10.725H81.3122V14.15H84.4122V17.025H81.3122ZM99.8046 20.775C99.8046 21.275 99.7713 21.725 99.7046 22.125H89.5796C89.6629 23.125 90.0129 23.9083 90.6296 24.475C91.2463 25.0417 92.0046 25.325 92.9046 25.325C94.2046 25.325 95.1296 24.7667 95.6796 23.65H99.4546C99.0546 24.9833 98.2879 26.0833 97.1546 26.95C96.0213 27.8 94.6296 28.225 92.9796 28.225C91.6463 28.225 90.4463 27.9333 89.3796 27.35C88.3296 26.75 87.5046 25.9083 86.9046 24.825C86.3213 23.7417 86.0296 22.4917 86.0296 21.075C86.0296 19.6417 86.3213 18.3833 86.9046 17.3C87.4879 16.2167 88.3046 15.3833 89.3546 14.8C90.4046 14.2167 91.6129 13.925 92.9796 13.925C94.2963 13.925 95.4713 14.2083 96.5046 14.775C97.5546 15.3417 98.3629 16.15 98.9296 17.2C99.5129 18.2333 99.8046 19.425 99.8046 20.775ZM96.1796 19.775C96.1629 18.875 95.8379 18.1583 95.2046 17.625C94.5713 17.075 93.7963 16.8 92.8796 16.8C92.0129 16.8 91.2796 17.0667 90.6796 17.6C90.0963 18.1167 89.7379 18.8417 89.6046 19.775H96.1796Z" fill="#3871FF"/>
<line x1="61" y1="33" x2="142" y2="33" stroke="white" stroke-width="2"/>
<path d="M104.088 23.55C104.788 23.55 105.288 23.725 105.588 24.075C105.888 24.4083 106.038 24.8833 106.038 25.5C106.038 25.75 106.005 26.0417 105.938 26.375C105.872 26.6917 105.747 26.9917 105.563 27.275C105.397 27.5417 105.155 27.775 104.838 27.975C104.522 28.1583 104.105 28.25 103.588 28.25C102.822 28.25 102.305 28.0583 102.038 27.675C101.772 27.275 101.638 26.7833 101.638 26.2C101.638 25.8667 101.68 25.5417 101.763 25.225C101.847 24.9083 101.98 24.625 102.163 24.375C102.347 24.125 102.597 23.925 102.913 23.775C103.23 23.625 103.622 23.55 104.088 23.55ZM111.238 28C110.304 28 109.638 27.8167 109.238 27.45C108.838 27.0833 108.638 26.5583 108.638 25.875C108.638 25.5417 108.663 24.975 108.713 24.175C108.763 23.3583 108.829 22.4333 108.913 21.4C108.996 20.3667 109.079 19.275 109.163 18.125C109.246 16.975 109.329 15.8917 109.413 14.875C109.496 13.8583 109.563 12.9667 109.613 12.2C109.663 11.4333 109.688 10.9083 109.688 10.625C109.688 10.375 109.821 10.25 110.088 10.25H111.463C112.479 10.25 113.163 10.4667 113.513 10.9C113.863 11.3333 114.038 11.975 114.038 12.825C114.038 12.9083 114.021 13.175 113.988 13.625C113.971 14.075 113.938 14.6417 113.888 15.325C113.838 16.0083 113.779 16.775 113.713 17.625C113.663 18.4583 113.604 19.3167 113.538 20.2C113.488 21.0833 113.429 21.95 113.363 22.8C113.313 23.6333 113.263 24.3917 113.213 25.075C113.163 25.7583 113.121 26.3333 113.088 26.8C113.054 27.25 113.029 27.525 113.013 27.625C112.996 27.7583 112.963 27.8583 112.913 27.925C112.863 27.975 112.763 28 112.613 28H111.238ZM128.899 14.675C128.899 15.475 128.749 16.25 128.449 17C128.166 17.7333 127.799 18.4333 127.349 19.1C126.899 19.75 126.391 20.3667 125.824 20.95C125.274 21.5167 124.724 22.0333 124.174 22.5C123.641 22.95 123.141 23.35 122.674 23.7C122.207 24.0333 121.849 24.3 121.599 24.5H127.949C128.049 24.5 128.141 24.525 128.224 24.575C128.307 24.625 128.349 24.7167 128.349 24.85L128.249 26.325C128.216 26.825 128.074 27.2333 127.824 27.55C127.591 27.85 127.099 28 126.349 28H118.149C117.299 28 116.699 27.8667 116.349 27.6C116.016 27.3167 115.849 26.8417 115.849 26.175V24.675C115.849 24.5917 115.866 24.4917 115.899 24.375C115.949 24.2583 115.991 24.1667 116.024 24.1C116.174 23.8167 116.482 23.4667 116.949 23.05C117.432 22.6333 117.974 22.1833 118.574 21.7C119.191 21.2167 119.832 20.7 120.499 20.15C121.182 19.6 121.799 19.0417 122.349 18.475C122.916 17.9083 123.382 17.35 123.749 16.8C124.116 16.2333 124.299 15.6917 124.299 15.175C124.299 14.7583 124.157 14.4083 123.874 14.125C123.591 13.825 123.132 13.675 122.499 13.675C122.099 13.675 121.766 13.7833 121.499 14C121.249 14.2167 121.041 14.4917 120.874 14.825C120.724 15.1417 120.607 15.5 120.524 15.9C120.457 16.2833 120.407 16.6417 120.374 16.975C120.341 17.1417 120.282 17.2583 120.199 17.325C120.132 17.3917 119.924 17.425 119.574 17.425C117.724 17.425 116.799 16.5333 116.799 14.75C116.799 13.8833 116.982 13.15 117.349 12.55C117.732 11.95 118.232 11.4583 118.849 11.075C119.466 10.6917 120.149 10.4167 120.899 10.25C121.666 10.0667 122.441 9.975 123.224 9.975C124.341 9.975 125.266 10.125 125.999 10.425C126.732 10.7083 127.316 11.0833 127.749 11.55C128.182 12 128.482 12.5083 128.649 13.075C128.816 13.625 128.899 14.1583 128.899 14.675ZM135.427 24.375C136.21 24.375 136.86 24.2083 137.377 23.875C137.91 23.5417 138.327 23.1333 138.627 22.65C138.943 22.1667 139.168 21.6583 139.302 21.125C139.435 20.5917 139.502 20.1167 139.502 19.7C139.502 19.4667 139.468 19.3083 139.402 19.225C139.335 19.3083 139.21 19.4667 139.027 19.7C138.86 19.9333 138.618 20.175 138.302 20.425C138.002 20.675 137.61 20.9 137.127 21.1C136.643 21.2833 136.068 21.375 135.402 21.375C134.852 21.375 134.302 21.3 133.752 21.15C133.218 20.9833 132.735 20.7167 132.302 20.35C131.885 19.9667 131.543 19.475 131.277 18.875C131.01 18.2583 130.877 17.5 130.877 16.6C130.877 15.6833 131.027 14.825 131.327 14.025C131.627 13.225 132.068 12.525 132.652 11.925C133.235 11.325 133.968 10.85 134.852 10.5C135.735 10.15 136.752 9.975 137.902 9.975C139.152 9.975 140.168 10.1833 140.952 10.6C141.752 11 142.377 11.5417 142.827 12.225C143.277 12.8917 143.585 13.675 143.752 14.575C143.918 15.475 144.002 16.4083 144.002 17.375C144.002 18.825 143.843 20.2083 143.527 21.525C143.21 22.8417 142.702 24 142.002 25C141.302 26 140.393 26.7917 139.277 27.375C138.16 27.9583 136.793 28.25 135.177 28.25C134.377 28.25 133.693 28.175 133.127 28.025C132.56 27.875 132.093 27.6667 131.727 27.4C131.377 27.1333 131.118 26.825 130.952 26.475C130.802 26.1083 130.727 25.7083 130.727 25.275C130.727 24.475 130.985 23.8833 131.502 23.5C132.035 23.1167 132.793 22.925 133.777 22.925C133.96 22.925 134.068 22.9417 134.102 22.975C134.135 23.0083 134.168 23.0917 134.202 23.225C134.285 23.675 134.393 23.9833 134.527 24.15C134.677 24.3 134.977 24.375 135.427 24.375ZM137.102 18.375C137.518 18.375 137.868 18.2833 138.152 18.1C138.435 17.9167 138.652 17.6917 138.802 17.425C138.968 17.1583 139.085 16.875 139.152 16.575C139.218 16.275 139.252 16 139.252 15.75C139.252 15.1667 139.102 14.7083 138.802 14.375C138.502 14.0417 138.102 13.875 137.602 13.875C137.202 13.875 136.868 13.975 136.602 14.175C136.335 14.375 136.118 14.625 135.952 14.925C135.802 15.2083 135.693 15.5167 135.627 15.85C135.56 16.1667 135.527 16.4417 135.527 16.675C135.527 17.175 135.652 17.5833 135.902 17.9C136.152 18.2167 136.552 18.375 137.102 18.375Z" fill="white"/>
</svg>
